<svg xmlns="http://www.w3.org/2000/svg" width="47.879" height="46.407" viewBox="0 0 47.879 46.407">
    <path fill="#d50037" d="M17.767.456a51.568 51.568 0 0 1-9.974 8.2c-5.52 3.267-6.911 7.161-7.159 7.81A9.435 9.435 0 0 0 0 19.84c0 5.56 4.858 10.082 10.83 10.082 2.787 0 5.427-2.038 7.483-3.994a.491.491 0 0 1 .778 0c1.935 1.867 4.617 3.994 7.482 3.994 5.972 0 10.83-4.523 10.83-10.082a9.741 9.741 0 0 0-.631-3.371c-.259-.69-1.7-4.637-7.161-7.811a49.8 49.8 0 0 1-9.974-8.2 1.187 1.187 0 0 0-1.87-.002z" transform="scale(-1) rotate(37 54.398 -67.82)"/>
</svg>
