<svg xmlns="http://www.w3.org/2000/svg" width="26.704" height="25.159" viewBox="0 0 26.704 25.159">
    <path fill="#d50037" d="M10.019 16.617a29.078 29.078 0 0 0-5.625-4.625 8.756 8.756 0 0 1-4.037-4.4A5.321 5.321 0 0 1 0 5.685 5.914 5.914 0 0 1 6.107 0c1.572 0 3.06 1.149 4.22 2.252a.277.277 0 0 0 .439 0C11.857 1.2 13.369 0 14.985 0a5.914 5.914 0 0 1 6.107 5.686 5.494 5.494 0 0 1-.356 1.9 8.691 8.691 0 0 1-4.038 4.4 28.084 28.084 0 0 0-5.625 4.625.67.67 0 0 1-1.054.006z" opacity="0.65" transform="rotate(-30 19.68 5.273)"/>
</svg>
