<svg xmlns="http://www.w3.org/2000/svg" width="120" height="120" viewBox="0 0 120 120">
    <defs>
        <style>
            .cls-2,.cls-5{fill:#fff;stroke:#010101}.cls-2{stroke-width:2px}.cls-6{stroke:none}.cls-7{fill:none}
        </style>
    </defs>
    <g id="ico_accumulate" transform="translate(-21.033 -17)">
        <g id="타원_137" class="cls-2" transform="translate(37.033 33)">
            <circle cx="44" cy="44" r="44" class="cls-6"/>
            <circle cx="44" cy="44" r="43" class="cls-7"/>
        </g>
        <g id="합치기_4" fill="#fff">
            <path d="M-7006.11-4990.74h-.088c-1.176 0-2.28-.457-3.112-1.288l-13.858-13.86c-3.12-3.119-3.12-8.194 0-11.313 1.51-1.511 3.52-2.343 5.657-2.343 2.136 0 4.146.832 5.657 2.343l4.993 4.993.707.707.707-.707 4.993-4.993c1.511-1.511 3.52-2.343 5.657-2.343 2.136 0 4.144.832 5.654 2.343 1.513 1.511 2.346 3.52 2.346 5.657 0 2.136-.833 4.146-2.345 5.656l-13.858 13.86c-.831.83-1.935 1.288-3.11 1.289z" class="cls-6" transform="translate(7087.545 5083.544)"/>
            <path fill="#010101" d="M-7006.103-4991.74c.905-.002 1.755-.355 2.395-.995l13.86-13.86c1.322-1.322 2.05-3.08 2.05-4.95s-.728-3.626-2.052-4.95c-1.32-1.321-3.078-2.05-4.947-2.05-1.87 0-3.628.729-4.95 2.05l-4.993 4.994-1.414 1.414-1.414-1.414-4.993-4.993c-1.322-1.322-3.08-2.05-4.95-2.05s-3.628.728-4.95 2.05c-2.73 2.73-2.73 7.17 0 9.9l13.858 13.859c.643.642 1.497.995 2.405.995h.095m-.008 2h-.087c-1.382 0-2.764-.527-3.819-1.581l-13.858-13.86c-3.515-3.514-3.515-9.213 0-12.727 1.757-1.758 4.06-2.636 6.364-2.636 2.303 0 4.606.878 6.364 2.636l4.993 4.992 4.993-4.992c1.757-1.758 4.06-2.636 6.364-2.636 2.302 0 4.606.878 6.362 2.636 3.517 3.514 3.517 9.213 0 12.728l-13.858 13.859c-1.054 1.054-2.436 1.582-3.818 1.582z" transform="translate(7087.545 5083.544)"/>
        </g>
        <circle id="타원_139" cx="13.5" cy="13.5" r="13.5" fill="#fff" transform="translate(96.033 33)"/>
        <g id="타원_138" class="cls-2" transform="translate(103.033 37)">
            <circle cx="13.5" cy="13.5" r="13.5" class="cls-6"/>
            <circle cx="13.5" cy="13.5" r="12.5" class="cls-7"/>
        </g>
        <g id="사각형_741" class="cls-5">
            <path d="M0 0H8V2H0z" class="cls-6" transform="translate(112.533 49)"/>
            <path d="M0.5 0.5H7.5V1.5H0.5z" class="cls-7" transform="translate(112.533 49)"/>
        </g>
        <g id="사각형_742" class="cls-5">
            <path d="M0 0H2V8H0z" class="cls-6" transform="translate(115.533 46)"/>
            <path d="M0.5 0.5H1.5V7.5H0.5z" class="cls-7" transform="translate(115.533 46)"/>
        </g>
    </g>
</svg>
