<svg xmlns="http://www.w3.org/2000/svg" width="10.546" height="8.437" viewBox="0 0 10.546 8.437">
    <path fill="#d50037" d="M5.01 29.553a14.539 14.539 0 0 0-2.81-2.312 4.378 4.378 0 0 1-2.018-2.2A2.66 2.66 0 0 1 0 24.088a2.957 2.957 0 0 1 3.054-2.843 3.375 3.375 0 0 1 2.11 1.126.139.139 0 0 0 .219 0 3.353 3.353 0 0 1 2.11-1.126 2.957 2.957 0 0 1 3.054 2.843 2.747 2.747 0 0 1-.178.95 4.345 4.345 0 0 1-2.019 2.2 14.042 14.042 0 0 0-2.812 2.313.335.335 0 0 1-.528.002z" opacity="0.1" transform="translate(0 -21.245)"/>
</svg>
