<svg xmlns="http://www.w3.org/2000/svg" width="20.587" height="16.469" viewBox="0 0 20.587 16.469">
    <path fill="#d50037" d="M9.779 37.463a28.38 28.38 0 0 0-5.49-4.514 8.546 8.546 0 0 1-3.94-4.3A5.193 5.193 0 0 1 0 26.794a5.772 5.772 0 0 1 5.961-5.549c1.534 0 2.987 1.122 4.118 2.2a.27.27 0 0 0 .428 0c1.065-1.028 2.541-2.2 4.118-2.2a5.772 5.772 0 0 1 5.961 5.549 5.362 5.362 0 0 1-.347 1.855 8.482 8.482 0 0 1-3.941 4.3 27.411 27.411 0 0 0-5.49 4.514.653.653 0 0 1-1.029 0z" opacity="0.3" transform="translate(0 -21.245)"/>
</svg>
