<svg xmlns="http://www.w3.org/2000/svg" width="479" height="346.373" viewBox="0 0 479 346.373">
    <defs>
        <style>
            .cls-15,.cls-8{fill:none}.cls-2,.cls-8{stroke:#010101}.cls-8,.cls-9{stroke-width:2px}.cls-2,.cls-6{fill:#010101}.cls-10,.cls-3,.cls-9{fill:#fff}.cls-7{fill:#d50037}.cls-8{stroke-linecap:round}.cls-9{stroke:#000}.cls-14,.cls-16{stroke:none}.cls-16{fill:#010101}
        </style>
    </defs>
    <g id="img_p_Reward" transform="translate(-1151 -2084.541)">
        <g id="계단">
            <path id="계단라인" fill="none" stroke="#010101" stroke-width="2px" d="M1161.134 2438.567v-60h158v-69.777l159-.223v-52h161" transform="translate(-9.134 -7.652)"/>
            <g id="사각형_772" class="cls-2">
                <path d="M0 0H159.5V23H0z" class="cls-14" transform="translate(1151.5 2370.915)"/>
                <path d="M0.5 0.5H159V22.5H0.5z" class="cls-15" transform="translate(1151.5 2370.915)"/>
            </g>
            <g id="사각형_773" class="cls-2">
                <path d="M0 0H159.6V23H0z" class="cls-14" transform="translate(1310.5 2300.915)"/>
                <path d="M0.5 0.5H159.1V22.5H0.5z" class="cls-15" transform="translate(1310.5 2300.915)"/>
            </g>
            <g id="사각형_774" class="cls-2">
                <path d="M0 0H160.5V23H0z" class="cls-14" transform="translate(1469.5 2248.915)"/>
                <path d="M0.5 0.5H160V22.5H0.5z" class="cls-15" transform="translate(1469.5 2248.915)"/>
            </g>
            <g id="그룹_431" transform="translate(792.341 1375.311)">
                <path id="패스_3103" d="M429.737 1012h-2.686l-1.4-4.911-1.4 4.911h-2.687l-2.4-8.4h2.336l1.433 5.631 1.511-5.631h2.429l1.511 5.637 1.433-5.637h2.315z" class="cls-3"/>
                <path id="패스_3104" d="M435.07 1006.711h3.106v-3.111h2.279v8.4h-2.279v-3.2h-3.106v3.2h-2.279v-8.4h2.279z" class="cls-3"/>
                <path id="패스_3105" d="M443.937 1012h-2.278v-8.4h2.278z" class="cls-3"/>
                <path id="패스_3106" d="M451.711 1005.7h-2.387v6.3h-2.278v-6.3h-2.387v-2.1h7.052z" class="cls-3"/>
                <path id="패스_3107" d="M458.995 1012h-6.56v-8.4h6.56v2.028h-4.282v1.109h3.987v2.027h-3.982v1.205H459z" class="cls-3"/>
            </g>
            <g id="그룹_432" transform="translate(950.789 1259.467)">
                <path id="패스_3108" d="M423.477 1048.6c2.254 0 3.256.924 3.256 2.412a1.934 1.934 0 0 0 .168 3.573c0 1.487-.989 2.411-3.208 2.411h-3.982v-8.4zm-1.487 1.86v1.4h1.433c.63 0 .948-.233.948-.7s-.318-.7-.942-.7zm0 3.244v1.439l1.577.006c.654 0 .989-.24.989-.725s-.335-.72-.989-.72z" class="cls-3"/>
                <path id="패스_3109" d="M434.125 1057H427.8v-8.4h2.278v6.3h4.042z" class="cls-3"/>
                <path id="패스_3110" d="M443.382 1057h-2.417l-.557-1.6h-3.137l-.551 1.6h-2.381l3.178-8.4h2.683zm-5.4-3.634h1.718l-.857-2.482z" class="cls-3"/>
                <path id="패스_3111" d="M451.32 1050.577l-2.021 1.116a2.113 2.113 0 1 0-1.841 3.28 2.172 2.172 0 0 0 1.895-1.055l1.871 1.307a4.322 4.322 0 0 1-3.736 1.931 4.355 4.355 0 1 1 0-8.708 4.264 4.264 0 0 1 3.832 2.129z" class="cls-3"/>
                <path id="패스_3112" d="M455.1 1053.786h-.648V1057h-2.282v-8.4h2.279v3.155h.66l2.117-3.155H460l-3.04 4.1 3.31 4.3h-2.8z" class="cls-3"/>
            </g>
            <g id="그룹_433" transform="translate(1122.789 1157.311)">
                <path id="패스_3113" d="M422.709 1101.4a2.453 2.453 0 0 1-2.17 2.519l2.284 3.082h-2.686l-2.021-2.98h-.126V1107h-2.279v-8.4h3.742c2.135 0 3.256 1.108 3.256 2.8zm-4.719-.75v1.494h1.439c.564 0 .977-.234.977-.744s-.413-.75-.977-.75z" class="cls-3"/>
                <path id="패스_3114" d="M430.288 1107h-6.561v-8.4h6.561v2.028h-4.282v1.109h3.982v2.027h-3.982v1.205h4.282z" class="cls-3"/>
                <path id="패스_3115" d="M439.431 1102.8a4.028 4.028 0 0 1-4.354 4.2h-3.706v-8.4h3.706a4.028 4.028 0 0 1 4.354 4.2zm-5.781-2.106v4.21h1.367a2.106 2.106 0 0 0 0-4.21z" class="cls-3"/>
            </g>
        </g>
        <g id="ico_white" transform="translate(1180.5 2276.137)">
            <g id="타원_102" fill="#fff" stroke="#d6d6d6" stroke-width="2px" transform="translate(11 -10.223)">
                <circle cx="40" cy="40" r="40" class="cls-14"/>
                <circle cx="40" cy="40" r="39" class="cls-15"/>
            </g>
            <g id="그룹_430" transform="translate(-441.349 -897.377)">
                <path id="패스_3100" fill="#d6d6d6" d="M502.767 930.809l3.517-11.655h7.555l-6.972 19.913h-7.837l-3.475-10.649-3.376 10.649h-7.836l-6.993-19.913h7.636l3.5 11.635 3.656-11.635h6.933z" transform="translate(-2.81 -1.533)"/>
            </g>
        </g>
        <g id="ico_black" transform="translate(1341.788 2226.137)">
            <circle id="타원_102-2" cx="40" cy="40" r="40" class="cls-6" transform="translate(8.712 -30.223)"/>
            <path id="패스_3101" d="M542.29 918c7.591 0 10.963 3.109 10.963 8.115a6.553 6.553 0 0 1-3.755 5.956 6.61 6.61 0 0 1 4.321 6.078c0 5.006-3.331 8.115-10.8 8.115h-13.408V918zm-5.007 6.257v4.706h4.825c2.12 0 3.19-.787 3.19-2.362 0-1.556-1.07-2.343-3.17-2.343zm0 10.924v4.844l5.31.02c2.2 0 3.331-.808 3.331-2.443 0-1.595-1.131-2.421-3.331-2.421z" class="cls-3" transform="translate(-492.01 -921.856)"/>
        </g>
        <g id="ico_red" transform="translate(1499.709 2175.137)">
            <circle id="타원_102-3" cx="40" cy="40" r="40" class="cls-7" transform="translate(9.791 -31.223)"/>
            <path id="패스_3102" d="M599.237 927.434c0 4.373-2.531 7.512-7.329 8.5l7.712 10.406h-9.069l-6.823-10.062h-.428v10.062h-7.693V918h12.633c7.211 0 10.997 3.726 10.997 9.434zM583.3 924.9v5.042h4.859c1.9 0 3.3-.79 3.3-2.512s-1.4-2.531-3.3-2.531z" class="cls-3" transform="translate(-536.93 -922.895)"/>
        </g>
        <g id="화살">
            <path id="패스_2900" d="M386.49 3650.788s47.872-103.338 101.757-45.769c.41.438-4.472-15.8-4.472-15.8" class="cls-8" transform="translate(1025.5 -1460.085)"/>
            <g id="그룹_403" transform="rotate(38 1782.69 2267.931)">
                <g id="사각형_779" class="cls-9" transform="translate(1413.5 2358.915)">
                    <rect width="57" height="30" class="cls-14" rx="15"/>
                    <rect width="55" height="28" x="1" y="1" class="cls-15" rx="14"/>
                </g>
                <path id="color_heart2" d="M7.141 33.089a20.725 20.725 0 0 0-4.009-3.3 6.241 6.241 0 0 1-2.877-3.135A3.792 3.792 0 0 1 0 25.3a4.216 4.216 0 0 1 4.353-4.052 4.81 4.81 0 0 1 3.008 1.602.2.2 0 0 0 .313 0 4.78 4.78 0 0 1 3.007-1.606 4.215 4.215 0 0 1 4.353 4.056 3.916 3.916 0 0 1-.254 1.355 6.2 6.2 0 0 1-2.878 3.14 20.017 20.017 0 0 0-4.009 3.3.477.477 0 0 1-.752-.006z" class="cls-6" transform="translate(1441.018 2346.669)"/>
                <g id="합치기_39" class="cls-10">
                    <path d="M852-1372.585h-1v-4h-4v-1h4v-4h1v4h4v1h-4v4z" class="cls-14" transform="translate(581 3751)"/>
                    <path d="M852.5-1372.085h-2v-4h-4v-2h4v-4h2v4h4v2h-4v4z" class="cls-16" transform="translate(581 3751)"/>
                </g>
            </g>
        </g>
        <g id="화살-2">
            <path id="패스_2901" d="M386.49 3650.788s47.872-103.338 101.757-45.769c.41.438-4.472-15.8-4.472-15.8" class="cls-8" transform="translate(858.5 -1395.874)"/>
            <g id="그룹_404" transform="rotate(38 1605.947 2057.536)">
                <g id="사각형_779-2" class="cls-9" transform="translate(1413.5 2358.915)">
                    <rect width="57" height="30" class="cls-14" rx="15"/>
                    <rect width="55" height="28" x="1" y="1" class="cls-15" rx="14"/>
                </g>
                <path id="color_heart2-2" d="M7.141 33.089a20.725 20.725 0 0 0-4.009-3.3 6.241 6.241 0 0 1-2.877-3.135A3.792 3.792 0 0 1 0 25.3a4.216 4.216 0 0 1 4.353-4.052 4.81 4.81 0 0 1 3.008 1.602.2.2 0 0 0 .313 0 4.78 4.78 0 0 1 3.007-1.606 4.215 4.215 0 0 1 4.353 4.056 3.916 3.916 0 0 1-.254 1.355 6.2 6.2 0 0 1-2.878 3.14 20.017 20.017 0 0 0-4.009 3.3.477.477 0 0 1-.752-.006z" class="cls-6" transform="translate(1441.018 2346.669)"/>
                <g id="합치기_39-2" class="cls-10">
                    <path d="M852-1372.585h-1v-4h-4v-1h4v-4h1v4h4v1h-4v4z" class="cls-14" transform="translate(581 3751)"/>
                    <path d="M852.5-1372.085h-2v-4h-4v-2h4v-4h2v4h4v2h-4v4z" class="cls-16" transform="translate(581 3751)"/>
                </g>
            </g>
        </g>
        <g id="컬러하트" transform="translate(1578.916 2092.541)">
            <path id="color_heart6" d="M10.535.27A30.576 30.576 0 0 1 4.62 5.133a9.206 9.206 0 0 0-4.244 4.63 5.594 5.594 0 0 0-.376 2 6.218 6.218 0 0 0 6.421 5.978c1.653 0 3.218-1.209 4.437-2.368a.291.291 0 0 1 .461 0c1.148 1.107 2.737 2.368 4.436 2.368a6.219 6.219 0 0 0 6.421-5.978 5.776 5.776 0 0 0-.374-2 9.137 9.137 0 0 0-4.246-4.631A29.527 29.527 0 0 1 11.643.27a.7.7 0 0 0-1.108 0z" class="cls-7" transform="scale(-1) rotate(37 73.87 -54.136)"/>
            <path id="color_heart2-3" fill="#d50037" d="M5.8 30.861a16.827 16.827 0 0 0-3.255-2.677 5.067 5.067 0 0 1-2.338-2.548A3.079 3.079 0 0 1 0 24.535a3.423 3.423 0 0 1 3.534-3.29 3.906 3.906 0 0 1 2.442 1.3.16.16 0 0 0 .254 0 3.881 3.881 0 0 1 2.442-1.3 3.423 3.423 0 0 1 3.534 3.29 3.179 3.179 0 0 1-.206 1.1 5.029 5.029 0 0 1-2.337 2.549 16.252 16.252 0 0 0-3.255 2.677.387.387 0 0 1-.608 0z" opacity="0.3" transform="translate(11.702 -20.036)"/>
            <path id="color_heart8" fill="#d50037" d="M2.97 26.171A8.62 8.62 0 0 0 1.3 24.8a2.6 2.6 0 0 1-1.2-1.305 1.577 1.577 0 0 1-.1-.564 1.753 1.753 0 0 1 1.811-1.686 2 2 0 0 1 1.251.668.082.082 0 0 0 .13 0 1.988 1.988 0 0 1 1.251-.668 1.753 1.753 0 0 1 1.811 1.686 1.629 1.629 0 0 1-.106.564A2.577 2.577 0 0 1 4.95 24.8a8.326 8.326 0 0 0-1.668 1.371.2.2 0 0 1-.312 0z" opacity="0.1" transform="translate(30.046 -29.245)"/>
            <path id="color_heart7" fill="#d50037" d="M5.941 9.853A17.241 17.241 0 0 0 2.606 7.11 5.192 5.192 0 0 1 .212 4.5 3.155 3.155 0 0 1 0 3.371 3.507 3.507 0 0 1 3.621 0a4 4 0 0 1 2.5 1.336.164.164 0 0 0 .26 0A3.976 3.976 0 0 1 8.885 0a3.507 3.507 0 0 1 3.621 3.371A3.257 3.257 0 0 1 12.3 4.5a5.153 5.153 0 0 1-2.4 2.61 16.651 16.651 0 0 0-3.334 2.743.4.4 0 0 1-.625 0z" opacity="0.65" transform="rotate(-30 51.059 -30.577)"/>
        </g>
    </g>
</svg>
