<svg xmlns="http://www.w3.org/2000/svg" id="ico_commercial" width="120" height="120" viewBox="0 0 120 120">
    <defs>
        <style>
            .cls-5{stroke:none}
        </style>
    </defs>
    <path id="area" fill="#fff" d="M0 0H120V120H0z" opacity="0.18"/>
    <g id="point" fill="#fff" transform="translate(-11 1)">
        <g id="패스_2820">
            <path d="M28 70.882c-1.958-2.079-7.62-8.22-13.217-15.54C5.766 43.555 1 34.1 1 28c0-3.645.714-7.181 2.121-10.51 1.36-3.214 3.307-6.102 5.787-8.582 2.48-2.48 5.368-4.427 8.583-5.787C20.819 1.714 24.355 1 28 1c3.645 0 7.181.714 10.51 2.121 3.214 1.36 6.102 3.307 8.582 5.787 2.48 2.48 4.427 5.368 5.787 8.583C54.286 20.819 55 24.355 55 28c0 6.101-4.77 15.562-13.794 27.358C35.609 62.674 29.956 68.806 28 70.882z" class="cls-5" transform="translate(43 15)"/>
            <path fill="#010101" d="M28 2c-3.51 0-6.916.687-10.12 2.042-3.096 1.31-5.876 3.185-8.265 5.573-2.388 2.389-4.263 5.17-5.573 8.265C2.687 21.084 2 24.49 2 28c0 3.19 1.389 7.391 4.128 12.488 2.268 4.22 5.443 9.009 9.437 14.232C20.557 61.25 25.603 66.84 28 69.418c2.397-2.58 7.443-8.17 12.435-14.698 3.994-5.223 7.169-10.012 9.437-14.232C52.612 35.39 54 31.19 54 28c0-3.51-.687-6.916-2.042-10.12-1.31-3.096-3.185-5.876-5.573-8.265-2.389-2.388-5.17-4.263-8.265-5.573C34.916 2.687 31.51 2 28 2m0-2c15.464 0 28 12.536 28 28S28 72.333 28 72.333 0 43.464 0 28C0 12.536 12.536 0 28 0z" transform="translate(43 15)"/>
        </g>
        <g id="타원_139" stroke="#010101" stroke-width="2px" transform="translate(61 33)">
            <circle cx="10" cy="10" r="10" class="cls-5"/>
            <circle cx="10" cy="10" r="9" fill="none"/>
        </g>
    </g>
    <path id="패스_2825" fill="none" stroke="#010101" stroke-width="2px" d="M2222 404l-18 28.032h94L2280 404" transform="translate(-2190.5 -328)"/>
</svg>
