<svg xmlns="http://www.w3.org/2000/svg" width="120" height="120" viewBox="0 0 120 120">
    <g>
        <path fill="none" d="M0 0H120V120H0z" opacity="0.1"/>
        <g>
            <g fill="#fff">
                <path d="M-2952-284h-68.001 68v-48 48zm-20.404-21.403l-7.613-7.614-.69-.69-.707.673c-2.055 1.957-4.749 3.034-7.586 3.034-2.938 0-5.7-1.144-7.779-3.222-2.077-2.077-3.221-4.84-3.221-7.777 0-2.939 1.144-5.701 3.221-7.779 2.078-2.078 4.84-3.222 7.779-3.222 6.065 0 11 4.935 11 11 0 2.398-.759 4.678-2.194 6.593l-.52.694.614.613 7.696 7.696z" transform="translate(-.5 -1.797) translate(3046 389)"/>
                <path fill="#010101" d="M-2989-311c2.58 0 5.028-.98 6.896-2.758l.608-.58.502-.669c1.304-1.74 1.994-3.812 1.994-5.992 0-5.515-4.486-10.001-10-10.001s-10 4.486-10 10 4.486 10 10 10m38 28h-70.001v-49.403h1.992V-285H-2953v-48h2v50zm-21.404-20.99l-8.32-8.32c-2.154 2.051-5.068 3.31-8.276 3.31-6.628 0-12-5.373-12-12s5.372-12 12-12c6.627 0 12 5.373 12 12 0 2.698-.891 5.188-2.393 7.193l8.404 8.404-1.415 1.414z" transform="translate(-.5 -1.797) translate(3046 389)"/>
            </g>
            <path fill="none" stroke="#000" stroke-width="2px" d="M157 612l47.05-40.2L253 612" transform="translate(-.5 -1.797) translate(-144.5 -553)"/>
        </g>
    </g>
</svg>
