<svg xmlns="http://www.w3.org/2000/svg" width="120" height="120" viewBox="0 0 120 120">
    <defs>
        <clipPath id="clip-path">
            <path id="패스_2656" fill="#fff" d="M.484 0L0 26.017l20.088-.517L20.2 0z"/>
        </clipPath>
        <style>
            .cls-4{fill:none;stroke:#010101;stroke-width:2px;stroke-linecap:round}.cls-7{stroke:none}
        </style>
    </defs>
    <g id="ico_customer" transform="translate(-1)">
        <g id="handshake" transform="translate(5 12)">
            <g id="하트" fill="#fff">
                <path d="M48.178 79.372c-.042 0-.087 0-.133-.003L48 79.367l-.044.002c-.044.002-.089.003-.133.003-.774 0-1.499-.3-2.041-.846l-38.26-38.47c-2.147-2.159-3.803-4.682-4.923-7.5-1.082-2.722-1.62-5.605-1.598-8.567.02-2.964.6-5.857 1.722-8.6 1.16-2.838 2.856-5.391 5.038-7.587 2.202-2.215 4.765-3.932 7.619-5.1C18.135 1.571 21.04 1 24.012 1c5.985 0 11.596 2.327 15.799 6.552l7.48 7.522.709.713.709-.713 7.48-7.522C60.392 3.327 66.003 1 71.99 1c2.972 0 5.876.572 8.631 1.701 2.853 1.169 5.417 2.885 7.62 5.101 2.181 2.196 3.876 4.749 5.038 7.588 1.121 2.742 1.7 5.635 1.721 8.599.021 2.962-.516 5.845-1.598 8.568-1.12 2.817-2.775 5.34-4.922 7.5L50.22 78.525c-.543.546-1.268.846-2.042.846z" class="cls-7" transform="translate(8 8)"/>
                <path fill="#010101" d="M48.178 78.372c.506 0 .98-.196 1.333-.551L87.77 39.35c2.05-2.062 3.632-4.472 4.701-7.163 1.034-2.603 1.549-5.36 1.528-8.192-.02-2.836-.574-5.604-1.647-8.228-1.111-2.716-2.733-5.16-4.822-7.26-2.108-2.121-4.56-3.764-7.289-4.882C77.607 2.547 74.831 2 71.988 2c-5.717 0-11.076 2.222-15.09 6.258l-7.48 7.521-1.419 1.426-1.418-1.426-7.48-7.521C35.089 4.222 29.73 2 24.012 2c-2.841 0-5.618.547-8.252 1.627-2.73 1.118-5.182 2.76-7.29 4.88-2.088 2.102-3.71 4.545-4.82 7.261C2.574 18.392 2.02 21.16 2 23.996c-.02 2.833.494 5.589 1.528 8.192 1.069 2.69 2.65 5.1 4.702 7.163l38.26 38.47c.353.355.826.551 1.332.551.03 0 .059 0 .088-.002l.089-.004.089.004.09.002m0 2c-.06 0-.119-.001-.178-.004-.06.003-.119.004-.178.004-1 0-1.994-.38-2.75-1.14l-38.26-38.47c-9.176-9.227-9.07-24.299.238-33.665C11.751 2.37 17.897 0 24.011 0 30.01 0 35.977 2.278 40.52 6.847L48 14.37l7.48-7.522C60.024 2.28 65.991 0 71.988 0c6.115 0 12.261 2.37 16.96 7.097 9.309 9.366 9.415 24.438.24 33.664l-38.259 38.47c-.757.761-1.751 1.141-2.75 1.141z" transform="translate(8 8)"/>
            </g>
            <path id="패스_2657" d="M-560.833-153.667l29.65 30.142" class="cls-4" transform="translate(619.679 178.882)"/>
            <path id="패스_2658" d="M-560.833-153.667l10.5 10.5" class="cls-4" transform="translate(627.258 209.432)"/>
            <path id="패스_2659" d="M-560.833-153.667l10.5 10.5" class="cls-4" transform="translate(616.161 221.245)"/>
            <g id="마스크_그룹_3" clip-path="url(#clip-path)" transform="rotate(45 7.97 80.699)">
                <g id="사각형_544" fill="#fff" stroke="#010101" stroke-width="2px">
                    <path d="M0 0h18.66v18.448a9.33 9.33 0 0 1-9.33 9.33A9.33 9.33 0 0 1 0 18.448V0z" class="cls-7" transform="translate(.673 -3.677)"/>
                    <path fill="none" d="M1.438 1h15.783a.438.438 0 0 1 .438.438v17.01a8.33 8.33 0 0 1-8.33 8.33A8.33 8.33 0 0 1 1 18.448V1.438A.438.438 0 0 1 1.438 1z" transform="translate(.673 -3.677)"/>
                </g>
            </g>
        </g>
    </g>
</svg>
